<svg xmlns="http://www.w3.org/2000/svg" xmlns:xlink="http://www.w3.org/1999/xlink" width="500" zoomAndPan="magnify" viewBox="0 0 375 374.999991" height="500" preserveAspectRatio="xMidYMid meet" version="1.0"><defs><g/><clipPath id="id1"><path d="M 103 52.296875 L 295.761719 52.296875 L 295.761719 264 L 103 264 Z M 103 52.296875 " clip-rule="nonzero"/></clipPath></defs><g clip-path="url(#id1)"><path fill="rgb(0%, 15.689087%, 54.508972%)" d="M 293.105469 52.953125 C 292.574219 52.890625 292.019531 52.984375 291.519531 53.246094 L 122.746094 141.226562 C 121.894531 141.671875 121.335938 142.535156 121.289062 143.492188 C 121.238281 144.453125 121.699219 145.363281 122.5 145.894531 L 165.109375 174.078125 L 170.375 213.789062 C 170.492188 214.664062 171.023438 215.425781 171.808594 215.835938 C 172.199219 216.039062 172.632812 216.140625 173.0625 216.140625 C 173.488281 216.140625 173.914062 216.039062 174.308594 215.84375 L 208.40625 198.277344 L 234.320312 211.21875 C 235.007812 211.5625 235.808594 211.59375 236.527344 211.316406 C 237.242188 211.03125 237.804688 210.464844 238.074219 209.742188 L 295.316406 56.601562 C 295.710938 55.542969 295.417969 54.359375 294.574219 53.617188 C 294.148438 53.242188 293.636719 53.019531 293.105469 52.953125 Z M 286.003906 62.242188 L 220.324219 121.402344 C 219.796875 121.441406 219.359375 121.753906 219.289062 122.332031 L 167.386719 169.082031 L 129.335938 143.90625 Z M 284.480469 70.089844 L 234.046875 205.015625 L 209.601562 192.804688 C 208.828125 192.417969 207.914062 192.425781 207.144531 192.820312 L 191.175781 182.519531 Z M 279.789062 71.492188 L 257.304688 98.585938 C 256.867188 96.964844 256.734375 95.28125 256.867188 93.582031 C 256.902344 93.09375 256.707031 92.761719 256.414062 92.546875 Z M 254.140625 94.597656 C 254.109375 96.804688 254.515625 98.933594 255.308594 100.996094 L 245.410156 112.917969 C 245.105469 110.316406 244.800781 107.714844 244.492188 105.113281 C 244.429688 104.5625 244.09375 104.210938 243.6875 104.011719 Z M 241.84375 105.671875 C 242.210938 108.785156 242.578125 111.902344 242.945312 115.015625 C 242.972656 115.257812 243.058594 115.453125 243.167969 115.625 L 235.15625 125.277344 C 234.644531 121.226562 234.089844 117.179688 233.617188 113.121094 C 233.617188 113.109375 233.609375 113.105469 233.605469 113.09375 Z M 231.179688 115.28125 C 231.707031 119.5625 232.296875 123.832031 232.796875 128.117188 L 224.085938 138.613281 C 223.417969 133.566406 222.75 128.519531 222.082031 123.472656 Z M 219.660156 125.65625 C 220.320312 130.632812 220.976562 135.609375 221.632812 140.585938 C 221.667969 140.847656 221.773438 141.058594 221.910156 141.242188 L 213.105469 151.847656 C 212.539062 146.035156 211.96875 140.21875 211.402344 134.40625 C 211.363281 134.011719 211.183594 133.722656 210.941406 133.507812 Z M 208.789062 135.445312 C 209.386719 141.5625 209.984375 147.6875 210.582031 153.804688 C 210.609375 154.101562 210.730469 154.324219 210.882812 154.519531 L 204.378906 162.359375 C 203.398438 155.824219 202.417969 149.289062 201.4375 142.753906 C 201.40625 142.546875 201.335938 142.378906 201.246094 142.238281 Z M 198.953125 144.308594 C 199.957031 151.023438 200.960938 157.738281 201.96875 164.453125 C 202 164.679688 202.078125 164.859375 202.183594 165.003906 L 194.261719 174.550781 C 193.519531 166.667969 192.78125 158.789062 192.039062 150.90625 C 192.03125 150.792969 191.980469 150.710938 191.949219 150.613281 Z M 189.507812 152.820312 C 190.246094 160.703125 190.984375 168.589844 191.726562 176.476562 C 191.757812 176.78125 191.882812 177.019531 192.046875 177.214844 L 188.105469 181.964844 C 188.082031 181.996094 188.0625 182.035156 188.039062 182.070312 C 188.03125 182.082031 188.019531 182.085938 188.011719 182.097656 C 188.003906 182.105469 188.007812 182.117188 188 182.128906 C 187.976562 182.164062 187.945312 182.199219 187.925781 182.238281 L 184.035156 190.296875 C 183.347656 180.464844 182.652344 170.632812 181.964844 160.804688 C 181.9375 160.441406 181.78125 160.171875 181.578125 159.960938 Z M 179.335938 161.980469 C 180.078125 172.585938 180.824219 183.195312 181.566406 193.804688 C 181.589844 194.160156 181.742188 194.421875 181.9375 194.632812 L 175.167969 208.640625 L 170.324219 172.144531 C 170.25 171.601562 169.976562 171.132812 169.617188 170.730469 Z M 189.707031 184.804688 L 204.363281 194.25 L 178.757812 207.449219 Z M 115.46875 186.738281 C 108.042969 187.183594 102.734375 193.765625 105.921875 202.5 C 110 213.675781 119.789062 221.050781 130.738281 224.566406 C 128.09375 240.113281 118.710938 254.285156 103.796875 260.972656 C 102.207031 261.6875 103.585938 264.027344 105.167969 263.316406 C 119.640625 256.824219 129.53125 243.347656 132.871094 227.984375 C 133.046875 227.175781 133.183594 226.21875 133.335938 225.324219 C 135.679688 225.933594 138.050781 226.394531 140.421875 226.65625 C 142.15625 226.851562 142.140625 224.136719 140.421875 223.945312 C 138.15625 223.691406 135.941406 223.234375 133.765625 222.664062 C 135.3125 210.738281 134.347656 193.992188 123.359375 188.480469 C 120.652344 187.121094 117.941406 186.585938 115.46875 186.738281 Z M 116.210938 189.671875 C 125.101562 189.667969 128.875 197.25 130.429688 204.714844 C 131.613281 210.390625 131.824219 216.226562 131.140625 221.921875 C 122.96875 219.234375 115.792969 214.191406 111.035156 206.605469 C 106.917969 200.035156 106.296875 189.675781 116.210938 189.671875 Z M 165.113281 220.789062 C 164.9375 220.765625 164.738281 220.777344 164.53125 220.839844 C 161.480469 221.769531 158.394531 222.546875 155.257812 223.136719 C 153.542969 223.457031 154.277344 226.074219 155.984375 225.753906 C 159.121094 225.164062 162.199219 224.386719 165.25 223.457031 C 166.707031 223.015625 166.351562 220.953125 165.113281 220.789062 Z M 143.863281 224.164062 C 142.113281 224.097656 142.117188 226.808594 143.863281 226.875 C 146.46875 226.96875 149.082031 227.054688 151.691406 227.011719 C 153.4375 226.984375 153.441406 224.273438 151.691406 224.300781 C 149.082031 224.339844 146.46875 224.257812 143.863281 224.164062 Z M 143.863281 224.164062 " fill-opacity="1" fill-rule="nonzero"/></g><g fill="rgb(25.489807%, 34.509277%, 76.078796%)" fill-opacity="1"><g transform="translate(28.908818, 314.413778)"><g><path d="M 2.453125 0.175781 C 2.890625 0.175781 3.242188 0.351562 3.417969 0.789062 C 3.507812 1.140625 3.855469 1.402344 4.382812 1.402344 C 5.347656 1.402344 6.660156 -0.789062 9.378906 -7.101562 C 10.429688 -9.464844 12.882812 -14.460938 14.726562 -18.054688 L 18.230469 -24.628906 L 21.472656 -25.945312 C 24.980469 -27.257812 29.1875 -28.488281 29.363281 -28.3125 C 29.449219 -28.222656 29.273438 -26.644531 29.011719 -24.804688 C 28.222656 -19.808594 28.222656 -10.078125 29.011719 -7.101562 C 30.328125 -2.105469 32.429688 1.140625 35.671875 3.15625 C 36.636719 3.769531 37.601562 4.292969 37.863281 4.292969 C 38.742188 4.292969 38.566406 3.507812 37.515625 2.453125 C 36.375 1.316406 36.375 1.226562 36.113281 -2.71875 C 35.9375 -6.925781 36.460938 -13.671875 37.515625 -19.28125 C 38.304688 -23.839844 39.617188 -29.539062 39.96875 -29.890625 C 40.230469 -30.238281 45.578125 -29.625 46.804688 -29.1875 C 47.683594 -28.835938 47.332031 -29.890625 46.367188 -30.941406 C 45.753906 -31.554688 44.351562 -32.253906 43.035156 -32.695312 L 40.667969 -33.484375 L 43.476562 -43.914062 C 48.296875 -61.707031 48.46875 -63.722656 45.664062 -66.527344 C 44.789062 -67.316406 43.476562 -68.628906 42.773438 -69.507812 C 41.457031 -70.820312 41.195312 -70.910156 40.054688 -70.734375 C 39.003906 -70.558594 38.214844 -69.945312 35.410156 -66.878906 C 29.890625 -60.828125 22.703125 -49.960938 14.988281 -35.761719 L 12.621094 -31.378906 L 10.078125 -30.0625 C 7.449219 -28.660156 6.574219 -27.699219 6.574219 -26.207031 C 6.574219 -25.15625 7.714844 -23.578125 8.238281 -23.929688 C 8.851562 -24.277344 8.503906 -23.664062 5.871094 -18.144531 C 1.929688 -10.078125 -0.351562 -3.679688 0 -1.664062 C 0.261719 -0.613281 1.402344 0.261719 2.453125 0.175781 Z M 32.167969 -14.902344 C 32.078125 -14.636719 31.992188 -14.988281 31.992188 -15.777344 C 31.992188 -16.566406 32.078125 -16.828125 32.167969 -16.390625 C 32.253906 -15.953125 32.253906 -15.25 32.167969 -14.902344 Z M 33.746094 -25.417969 C 33.308594 -23.226562 32.78125 -20.421875 32.605469 -19.28125 L 32.253906 -17.179688 L 32.429688 -19.195312 C 32.605469 -21.824219 33.921875 -29.363281 34.269531 -29.363281 C 34.359375 -29.363281 34.183594 -27.609375 33.746094 -25.417969 Z M 32.78125 -26.996094 C 32.695312 -26.910156 32.605469 -27.082031 32.605469 -27.433594 C 32.605469 -27.871094 32.695312 -27.960938 32.867188 -27.699219 C 32.957031 -27.433594 32.867188 -27.082031 32.78125 -26.996094 Z M 34.269531 -34.535156 L 34.445312 -35.234375 C 34.886719 -37.425781 37.074219 -45.664062 37.164062 -45.492188 C 37.25 -45.492188 36.8125 -43.300781 36.113281 -40.667969 C 35.410156 -38.039062 34.796875 -35.585938 34.621094 -35.234375 Z M 40.84375 -55.042969 C 41.632812 -58.199219 42.511719 -61.09375 42.597656 -61.441406 L 42.949219 -62.144531 L 42.859375 -61.441406 C 42.773438 -61.09375 41.109375 -54.871094 39.265625 -47.769531 C 37.339844 -40.582031 35.671875 -34.710938 35.5 -34.710938 C 35.324219 -34.710938 35.324219 -34.972656 35.410156 -35.324219 C 35.761719 -36.550781 39.265625 -49.433594 40.84375 -55.042969 Z M 38.566406 -49.960938 C 38.566406 -49.609375 38.390625 -49.085938 38.304688 -48.734375 C 38.128906 -48.296875 37.953125 -48.207031 37.953125 -48.558594 C 37.953125 -48.820312 38.128906 -49.347656 38.304688 -49.785156 C 38.480469 -50.222656 38.566406 -50.3125 38.566406 -49.960938 Z M 36.988281 -61.441406 L 38.128906 -62.496094 L 37.164062 -61.355469 C 36.550781 -60.742188 36.113281 -60.214844 36.023438 -60.214844 C 35.761719 -60.214844 36.023438 -60.480469 36.988281 -61.441406 Z M 33.746094 -45.492188 C 32.695312 -41.632812 31.640625 -37.601562 31.378906 -36.636719 L 30.941406 -34.796875 L 28.488281 -34.535156 C 27.171875 -34.445312 25.507812 -34.269531 24.804688 -34.097656 C 24.105469 -34.007812 23.578125 -34.007812 23.578125 -34.183594 C 23.578125 -34.886719 33.394531 -50.835938 35.148438 -52.941406 C 36.199219 -54.253906 36.289062 -54.695312 33.746094 -45.492188 Z M 20.070312 -35.410156 C 23.839844 -42.246094 32.34375 -55.65625 34.796875 -58.636719 C 35.410156 -59.425781 34.886719 -58.460938 33.484375 -56.535156 C 30.328125 -51.976562 26.46875 -45.839844 22.703125 -39.265625 C 19.722656 -34.007812 17.878906 -31.378906 20.070312 -35.410156 Z M 12.710938 -21.386719 C 13.058594 -21.824219 12.710938 -21.035156 12.007812 -19.632812 C 11.308594 -18.320312 10.605469 -17.003906 10.429688 -16.828125 C 9.992188 -16.214844 12.097656 -20.597656 12.710938 -21.386719 Z M 9.027344 -14.460938 C 9.554688 -15.515625 9.992188 -16.304688 10.078125 -16.304688 C 10.167969 -16.304688 9.816406 -15.515625 9.378906 -14.460938 C 8.941406 -13.5 8.414062 -12.710938 8.328125 -12.710938 C 8.238281 -12.710938 8.589844 -13.5 9.027344 -14.460938 Z M 7.011719 -10.253906 C 7.449219 -11.132812 7.886719 -11.65625 7.886719 -11.480469 C 7.886719 -11.308594 7.449219 -10.429688 7.011719 -9.554688 C 6.574219 -8.675781 6.222656 -8.152344 6.222656 -8.328125 C 6.222656 -8.503906 6.574219 -9.378906 7.011719 -10.253906 Z M 6.136719 -7.625 C 6.136719 -7.363281 5.699219 -6.3125 5.257812 -5.082031 C 4.734375 -3.945312 4.292969 -3.15625 4.292969 -3.332031 C 4.207031 -3.855469 6.136719 -8.0625 6.136719 -7.625 Z M 3.507812 -1.753906 C 3.769531 -2.191406 3.855469 -2.191406 3.855469 -1.664062 C 3.855469 -1.316406 3.679688 -0.964844 3.507812 -0.875 C 3.066406 -0.613281 3.066406 -1.050781 3.507812 -1.753906 Z M 3.507812 -1.753906 "/></g></g></g><g fill="rgb(25.489807%, 34.509277%, 76.078796%)" fill-opacity="1"><g transform="translate(75.525002, 314.413778)"><g><path d="M 30.414062 -38.304688 C 29.539062 -38.917969 28.75 -39.53125 28.660156 -39.707031 C 28.488281 -40.230469 26.644531 -40.933594 25.507812 -40.933594 C 24.804688 -40.933594 23.753906 -40.667969 23.050781 -40.320312 C 21.648438 -39.617188 17.355469 -35.234375 15.601562 -32.867188 C 14.988281 -31.992188 14.460938 -31.292969 14.375 -31.378906 C 14.285156 -31.464844 14.636719 -32.867188 15.164062 -34.445312 C 15.601562 -36.023438 16.039062 -38.039062 16.039062 -38.828125 C 16.128906 -40.230469 16.039062 -40.40625 14.988281 -41.019531 C 14.285156 -41.371094 13.585938 -41.898438 13.410156 -42.160156 C 12.621094 -43.125 11.21875 -42.597656 10.078125 -40.84375 C 7.1875 -36.636719 2.453125 -21.914062 0.0859375 -10.253906 C -1.578125 -1.578125 -2.191406 4.644531 -2.277344 13.847656 C -2.277344 23.226562 -2.191406 23.664062 -0.175781 26.910156 C 0.703125 28.3125 1.226562 28.835938 1.839844 29.011719 C 2.367188 29.011719 2.890625 29.101562 3.15625 29.1875 C 3.59375 29.1875 3.769531 27.433594 4.292969 19.546875 C 4.734375 12.359375 6.660156 -2.453125 7.449219 -4.820312 C 7.539062 -5.082031 7.976562 -4.910156 8.941406 -4.121094 C 11.132812 -2.277344 14.550781 -0.703125 16.476562 -0.703125 C 21.125 -0.789062 27.960938 -7.714844 30.941406 -15.601562 C 33.308594 -21.738281 33.746094 -23.753906 33.832031 -28.75 C 33.832031 -33.132812 33.746094 -33.570312 32.957031 -35.324219 C 32.253906 -36.726562 31.640625 -37.515625 30.414062 -38.304688 Z M 13.847656 -39.792969 C 13.9375 -39.707031 13.324219 -37.863281 12.445312 -35.585938 C 11.65625 -33.308594 10.957031 -31.554688 10.957031 -31.730469 C 10.867188 -32.253906 13.671875 -39.96875 13.847656 -39.792969 Z M 1.664062 17.179688 C 1.578125 20.421875 1.402344 23.050781 1.402344 23.140625 C 1.140625 23.402344 1.316406 17.53125 1.578125 14.375 C 1.753906 12.269531 1.753906 13.148438 1.664062 17.179688 Z M 1.753906 4.644531 C 1.402344 7.011719 1.050781 12.359375 0.875 16.476562 L 0.613281 24.015625 L 0.789062 16.039062 C 0.875 8.152344 1.316406 3.332031 2.71875 -5.082031 C 3.417969 -8.765625 4.644531 -14.285156 4.820312 -14.113281 C 4.910156 -14.023438 4.644531 -12.535156 4.292969 -10.78125 C 3.332031 -6.398438 2.367188 -0.527344 1.753906 4.644531 Z M 2.542969 6.3125 C 2.542969 7.101562 2.453125 8.414062 2.277344 9.289062 L 2.015625 11.042969 L 2.015625 9.464844 C 2.015625 8.675781 2.105469 7.273438 2.277344 6.484375 L 2.542969 4.996094 Z M 5.082031 -8.941406 C 4.996094 -8.675781 4.46875 -5.871094 3.945312 -2.890625 C 3.417969 0.175781 2.890625 3.15625 2.804688 3.855469 C 2.71875 4.910156 2.71875 4.910156 2.628906 3.945312 C 2.628906 3.066406 3.242188 -1.226562 4.292969 -7.273438 C 4.46875 -8.503906 4.820312 -9.554688 4.996094 -9.554688 C 5.171875 -9.554688 5.257812 -9.289062 5.082031 -8.941406 Z M 7.273438 -22.351562 C 7.273438 -22.089844 7.101562 -21.824219 6.925781 -21.738281 C 6.484375 -21.472656 6.398438 -21.300781 8.152344 -26.820312 C 9.992188 -33.042969 12.535156 -39.882812 12.621094 -38.917969 C 12.621094 -38.828125 12.097656 -37.425781 11.570312 -35.9375 C 10.34375 -32.519531 7.273438 -22.964844 7.273438 -22.351562 Z M 10.867188 -31.117188 C 10.867188 -30.503906 10.34375 -29.363281 10.34375 -29.890625 C 10.253906 -30.238281 10.429688 -30.675781 10.605469 -30.941406 C 10.78125 -31.203125 10.957031 -31.292969 10.867188 -31.117188 Z M 10.253906 -28.925781 C 10.253906 -28.660156 9.992188 -27.871094 9.730469 -27.257812 C 9.554688 -26.644531 9.289062 -26.296875 9.289062 -26.558594 C 9.289062 -26.820312 9.554688 -27.609375 9.730469 -28.222656 C 9.992188 -28.925781 10.253906 -29.1875 10.253906 -28.925781 Z M 8.851562 -24.105469 C 8.675781 -23.402344 8.328125 -22.613281 8.152344 -22.4375 C 7.800781 -22.089844 8.0625 -22.875 8.765625 -24.894531 C 9.378906 -26.382812 9.378906 -25.945312 8.851562 -24.105469 Z M 14.023438 -5.347656 C 13.5 -5.082031 12.796875 -4.910156 12.621094 -4.910156 C 11.832031 -4.910156 9.289062 -10.605469 9.289062 -12.269531 C 9.289062 -15.339844 11.132812 -19.546875 15.25 -25.769531 C 18.933594 -31.378906 24.71875 -36.636719 27.171875 -36.636719 C 27.871094 -36.636719 27.785156 -31.992188 27.171875 -28.3125 C 25.332031 -18.667969 18.84375 -7.363281 14.023438 -5.347656 Z M 29.101562 -18.933594 C 29.011719 -18.40625 28.398438 -17.003906 27.785156 -15.601562 C 27.171875 -14.285156 26.558594 -13.234375 26.46875 -13.234375 C 26.382812 -13.234375 26.46875 -13.671875 26.734375 -14.113281 C 26.996094 -14.636719 27.523438 -15.777344 27.871094 -16.566406 C 28.222656 -17.355469 28.660156 -18.40625 28.925781 -18.933594 L 29.273438 -19.722656 Z M 27.257812 -17.003906 C 26.734375 -15.863281 26.296875 -14.902344 26.121094 -14.902344 C 26.03125 -14.902344 26.121094 -15.339844 26.382812 -15.777344 C 26.996094 -17.003906 29.011719 -22.351562 29.539062 -24.277344 C 29.714844 -25.066406 29.890625 -25.507812 29.976562 -25.15625 C 29.976562 -24.367188 28.398438 -19.371094 27.257812 -17.003906 Z M 30.152344 -26.03125 C 30.0625 -25.855469 29.976562 -26.121094 29.976562 -26.46875 C 30.0625 -26.820312 30.0625 -26.910156 30.238281 -26.644531 C 30.328125 -26.382812 30.328125 -26.121094 30.152344 -26.03125 Z M 30.152344 -26.03125 "/></g></g></g><g fill="rgb(25.489807%, 34.509277%, 76.078796%)" fill-opacity="1"><g transform="translate(112.327362, 314.413778)"><g><path d="M 30.414062 -38.304688 C 29.539062 -38.917969 28.75 -39.53125 28.660156 -39.707031 C 28.488281 -40.230469 26.644531 -40.933594 25.507812 -40.933594 C 24.804688 -40.933594 23.753906 -40.667969 23.050781 -40.320312 C 21.648438 -39.617188 17.355469 -35.234375 15.601562 -32.867188 C 14.988281 -31.992188 14.460938 -31.292969 14.375 -31.378906 C 14.285156 -31.464844 14.636719 -32.867188 15.164062 -34.445312 C 15.601562 -36.023438 16.039062 -38.039062 16.039062 -38.828125 C 16.128906 -40.230469 16.039062 -40.40625 14.988281 -41.019531 C 14.285156 -41.371094 13.585938 -41.898438 13.410156 -42.160156 C 12.621094 -43.125 11.21875 -42.597656 10.078125 -40.84375 C 7.1875 -36.636719 2.453125 -21.914062 0.0859375 -10.253906 C -1.578125 -1.578125 -2.191406 4.644531 -2.277344 13.847656 C -2.277344 23.226562 -2.191406 23.664062 -0.175781 26.910156 C 0.703125 28.3125 1.226562 28.835938 1.839844 29.011719 C 2.367188 29.011719 2.890625 29.101562 3.15625 29.1875 C 3.59375 29.1875 3.769531 27.433594 4.292969 19.546875 C 4.734375 12.359375 6.660156 -2.453125 7.449219 -4.820312 C 7.539062 -5.082031 7.976562 -4.910156 8.941406 -4.121094 C 11.132812 -2.277344 14.550781 -0.703125 16.476562 -0.703125 C 21.125 -0.789062 27.960938 -7.714844 30.941406 -15.601562 C 33.308594 -21.738281 33.746094 -23.753906 33.832031 -28.75 C 33.832031 -33.132812 33.746094 -33.570312 32.957031 -35.324219 C 32.253906 -36.726562 31.640625 -37.515625 30.414062 -38.304688 Z M 13.847656 -39.792969 C 13.9375 -39.707031 13.324219 -37.863281 12.445312 -35.585938 C 11.65625 -33.308594 10.957031 -31.554688 10.957031 -31.730469 C 10.867188 -32.253906 13.671875 -39.96875 13.847656 -39.792969 Z M 1.664062 17.179688 C 1.578125 20.421875 1.402344 23.050781 1.402344 23.140625 C 1.140625 23.402344 1.316406 17.53125 1.578125 14.375 C 1.753906 12.269531 1.753906 13.148438 1.664062 17.179688 Z M 1.753906 4.644531 C 1.402344 7.011719 1.050781 12.359375 0.875 16.476562 L 0.613281 24.015625 L 0.789062 16.039062 C 0.875 8.152344 1.316406 3.332031 2.71875 -5.082031 C 3.417969 -8.765625 4.644531 -14.285156 4.820312 -14.113281 C 4.910156 -14.023438 4.644531 -12.535156 4.292969 -10.78125 C 3.332031 -6.398438 2.367188 -0.527344 1.753906 4.644531 Z M 2.542969 6.3125 C 2.542969 7.101562 2.453125 8.414062 2.277344 9.289062 L 2.015625 11.042969 L 2.015625 9.464844 C 2.015625 8.675781 2.105469 7.273438 2.277344 6.484375 L 2.542969 4.996094 Z M 5.082031 -8.941406 C 4.996094 -8.675781 4.46875 -5.871094 3.945312 -2.890625 C 3.417969 0.175781 2.890625 3.15625 2.804688 3.855469 C 2.71875 4.910156 2.71875 4.910156 2.628906 3.945312 C 2.628906 3.066406 3.242188 -1.226562 4.292969 -7.273438 C 4.46875 -8.503906 4.820312 -9.554688 4.996094 -9.554688 C 5.171875 -9.554688 5.257812 -9.289062 5.082031 -8.941406 Z M 7.273438 -22.351562 C 7.273438 -22.089844 7.101562 -21.824219 6.925781 -21.738281 C 6.484375 -21.472656 6.398438 -21.300781 8.152344 -26.820312 C 9.992188 -33.042969 12.535156 -39.882812 12.621094 -38.917969 C 12.621094 -38.828125 12.097656 -37.425781 11.570312 -35.9375 C 10.34375 -32.519531 7.273438 -22.964844 7.273438 -22.351562 Z M 10.867188 -31.117188 C 10.867188 -30.503906 10.34375 -29.363281 10.34375 -29.890625 C 10.253906 -30.238281 10.429688 -30.675781 10.605469 -30.941406 C 10.78125 -31.203125 10.957031 -31.292969 10.867188 -31.117188 Z M 10.253906 -28.925781 C 10.253906 -28.660156 9.992188 -27.871094 9.730469 -27.257812 C 9.554688 -26.644531 9.289062 -26.296875 9.289062 -26.558594 C 9.289062 -26.820312 9.554688 -27.609375 9.730469 -28.222656 C 9.992188 -28.925781 10.253906 -29.1875 10.253906 -28.925781 Z M 8.851562 -24.105469 C 8.675781 -23.402344 8.328125 -22.613281 8.152344 -22.4375 C 7.800781 -22.089844 8.0625 -22.875 8.765625 -24.894531 C 9.378906 -26.382812 9.378906 -25.945312 8.851562 -24.105469 Z M 14.023438 -5.347656 C 13.5 -5.082031 12.796875 -4.910156 12.621094 -4.910156 C 11.832031 -4.910156 9.289062 -10.605469 9.289062 -12.269531 C 9.289062 -15.339844 11.132812 -19.546875 15.25 -25.769531 C 18.933594 -31.378906 24.71875 -36.636719 27.171875 -36.636719 C 27.871094 -36.636719 27.785156 -31.992188 27.171875 -28.3125 C 25.332031 -18.667969 18.84375 -7.363281 14.023438 -5.347656 Z M 29.101562 -18.933594 C 29.011719 -18.40625 28.398438 -17.003906 27.785156 -15.601562 C 27.171875 -14.285156 26.558594 -13.234375 26.46875 -13.234375 C 26.382812 -13.234375 26.46875 -13.671875 26.734375 -14.113281 C 26.996094 -14.636719 27.523438 -15.777344 27.871094 -16.566406 C 28.222656 -17.355469 28.660156 -18.40625 28.925781 -18.933594 L 29.273438 -19.722656 Z M 27.257812 -17.003906 C 26.734375 -15.863281 26.296875 -14.902344 26.121094 -14.902344 C 26.03125 -14.902344 26.121094 -15.339844 26.382812 -15.777344 C 26.996094 -17.003906 29.011719 -22.351562 29.539062 -24.277344 C 29.714844 -25.066406 29.890625 -25.507812 29.976562 -25.15625 C 29.976562 -24.367188 28.398438 -19.371094 27.257812 -17.003906 Z M 30.152344 -26.03125 C 30.0625 -25.855469 29.976562 -26.121094 29.976562 -26.46875 C 30.0625 -26.820312 30.0625 -26.910156 30.238281 -26.644531 C 30.328125 -26.382812 30.328125 -26.121094 30.152344 -26.03125 Z M 30.152344 -26.03125 "/></g></g></g><g fill="rgb(25.489807%, 34.509277%, 76.078796%)" fill-opacity="1"><g transform="translate(149.129714, 314.413778)"><g/></g></g><g fill="rgb(25.489807%, 34.509277%, 76.078796%)" fill-opacity="1"><g transform="translate(172.087568, 314.413778)"><g><path d="M 0.875 -22.613281 C 1.488281 -22.4375 1.488281 -22.175781 1.402344 -17.179688 C 1.316406 -11.480469 1.664062 -8.414062 2.71875 -5.871094 C 3.769531 -3.507812 5.257812 -1.578125 7.011719 -0.175781 C 7.886719 0.527344 8.941406 1.316406 9.378906 1.664062 C 9.730469 2.015625 10.605469 2.542969 11.308594 2.804688 C 12.535156 3.242188 12.710938 3.242188 14.285156 2.71875 C 15.25 2.453125 21.386719 -2.367188 22.175781 -3.417969 C 22.703125 -4.121094 22.703125 -4.121094 22 -4.734375 C 20.949219 -5.523438 20.859375 -5.523438 17.707031 -3.855469 C 14.460938 -2.105469 12.269531 -1.402344 10.78125 -1.753906 C 9.816406 -1.929688 9.730469 -2.191406 9.117188 -4.644531 C 7.976562 -8.851562 8.503906 -13.058594 10.957031 -20.597656 L 12.183594 -24.277344 L 15.074219 -25.855469 C 18.582031 -27.785156 23.140625 -29.539062 30.152344 -31.730469 C 32.867188 -32.519531 35.148438 -33.308594 35.234375 -33.394531 C 35.324219 -33.484375 34.972656 -34.183594 34.445312 -34.796875 L 33.394531 -36.023438 L 30.503906 -35.5 C 28.925781 -35.324219 24.980469 -34.535156 21.824219 -33.746094 C 18.667969 -33.042969 16.039062 -32.519531 15.953125 -32.605469 C 15.777344 -32.867188 18.84375 -39.792969 22.089844 -46.453125 C 23.753906 -49.875 25.59375 -53.90625 26.296875 -55.484375 L 27.523438 -58.289062 L 30.503906 -59.25 C 34.535156 -60.652344 40.582031 -62.054688 44.527344 -62.582031 C 48.46875 -63.109375 48.820312 -63.195312 49.257812 -64.160156 C 49.523438 -64.773438 49.433594 -65.125 48.910156 -66 C 48.558594 -66.613281 48.207031 -67.226562 48.207031 -67.402344 C 48.207031 -68.105469 46.367188 -69.769531 44.964844 -70.121094 C 44.175781 -70.382812 41.109375 -70.644531 38.039062 -70.734375 C 33.132812 -70.910156 32.078125 -70.820312 27.871094 -69.945312 C 21.035156 -68.628906 16.652344 -66.789062 14.8125 -64.511719 C 13.9375 -63.371094 13.847656 -63.371094 14.285156 -61.707031 C 14.636719 -60.304688 14.902344 -59.953125 15.515625 -59.953125 C 15.953125 -59.953125 16.214844 -59.777344 16.039062 -59.601562 C 15.953125 -59.339844 16.039062 -59.164062 16.304688 -59.164062 C 17.179688 -59.164062 16.390625 -56.972656 14.199219 -52.941406 C 10.34375 -46.105469 6.660156 -37.777344 4.558594 -31.554688 C 3.855469 -29.363281 3.507812 -28.75 2.453125 -28.046875 C 0.789062 -26.996094 -0.613281 -25.332031 -0.613281 -24.628906 C -0.527344 -23.753906 0.0859375 -22.789062 0.875 -22.613281 Z M 21.035156 -47.15625 C 20.859375 -46.71875 20.683594 -46.367188 20.597656 -46.367188 C 20.511719 -46.367188 20.597656 -46.71875 20.773438 -47.15625 C 20.949219 -47.59375 21.210938 -47.855469 21.300781 -47.855469 C 21.386719 -47.855469 21.300781 -47.59375 21.035156 -47.15625 Z M 22.875 -56.445312 C 22.964844 -56.359375 22.4375 -55.21875 21.738281 -53.992188 C 19.808594 -50.660156 15.074219 -40.84375 12.972656 -35.9375 C 12.007812 -33.65625 11.132812 -31.730469 10.957031 -31.730469 C 10.691406 -31.730469 11.308594 -33.132812 13.5 -38.304688 C 16.476562 -45.140625 22.527344 -56.796875 22.875 -56.445312 Z M 21.210938 -56.183594 C 21.386719 -56.183594 21.210938 -55.746094 20.859375 -55.132812 C 17.53125 -49.257812 10.957031 -35.410156 10.078125 -32.519531 C 9.90625 -31.90625 9.554688 -31.292969 9.378906 -31.292969 C 8.941406 -31.292969 9.027344 -31.378906 11.132812 -36.289062 C 14.636719 -44.613281 20.511719 -56.183594 21.210938 -56.183594 Z M 18.757812 -53.992188 C 19.28125 -54.429688 19.28125 -54.429688 18.84375 -53.816406 C 18.40625 -53.203125 18.144531 -53.027344 18.144531 -53.292969 C 18.144531 -53.378906 18.40625 -53.730469 18.757812 -53.992188 Z M 17.53125 -51.890625 C 17.792969 -51.976562 17.707031 -51.714844 17.355469 -51.1875 C 17.09375 -50.574219 16.742188 -50.136719 16.652344 -50.136719 C 16.390625 -50.136719 17.179688 -51.625 17.53125 -51.890625 Z M 16.304688 -49.609375 C 16.476562 -49.785156 16.304688 -49.171875 15.863281 -48.296875 C 15.339844 -47.332031 14.285156 -44.964844 13.324219 -43.035156 C 11.570312 -39.265625 11.394531 -38.917969 11.394531 -39.355469 C 11.394531 -39.792969 15.953125 -49.171875 16.304688 -49.609375 Z M 8.765625 -33.308594 C 9.203125 -34.710938 11.042969 -38.828125 11.21875 -38.828125 C 11.308594 -38.828125 10.78125 -37.515625 10.167969 -35.9375 C 9.027344 -33.042969 8.152344 -31.378906 8.765625 -33.308594 Z M 7.976562 -31.464844 C 8.152344 -31.816406 8.328125 -31.992188 8.414062 -31.90625 C 8.503906 -31.816406 8.414062 -31.464844 8.152344 -31.203125 C 7.886719 -30.851562 7.800781 -30.941406 7.976562 -31.464844 Z M 7.1875 -21.5625 C 7.363281 -21.824219 7.449219 -21.914062 7.449219 -21.738281 C 7.449219 -21.035156 6.925781 -19.808594 6.835938 -20.421875 C 6.835938 -20.683594 7.011719 -21.210938 7.1875 -21.5625 Z M 5.871094 -21.125 C 6.046875 -21.125 5.960938 -20.335938 5.699219 -19.371094 C 5.523438 -18.40625 5.257812 -17.265625 5.171875 -16.828125 C 4.996094 -16.214844 4.996094 -16.214844 4.910156 -16.742188 C 4.910156 -17.792969 5.609375 -21.125 5.871094 -21.125 Z M 4.644531 -20.246094 C 4.644531 -20.683594 4.734375 -20.773438 4.820312 -20.511719 C 4.910156 -20.246094 4.910156 -19.898438 4.820312 -19.722656 C 4.644531 -19.632812 4.644531 -19.808594 4.644531 -20.246094 Z M 4.644531 -20.246094 "/></g></g></g><g fill="rgb(25.489807%, 34.509277%, 76.078796%)" fill-opacity="1"><g transform="translate(208.977549, 314.413778)"><g><path d="M 21.210938 -41.722656 C 20.511719 -42.160156 19.28125 -42.949219 18.496094 -43.476562 C 15.777344 -45.402344 12.269531 -44.613281 8.765625 -41.371094 C 6.046875 -38.828125 4.46875 -35.671875 3.945312 -31.90625 C 3.507812 -27.960938 4.734375 -24.453125 8.675781 -18.757812 C 11.042969 -15.25 11.65625 -13.5 11.394531 -10.957031 C 11.042969 -7.273438 8.152344 -4.46875 4.292969 -3.945312 C 2.453125 -3.679688 2.367188 -3.679688 1.050781 -4.820312 C 0.261719 -5.433594 -0.613281 -6.3125 -0.875 -6.75 C -1.140625 -7.273438 -1.488281 -7.625 -1.664062 -7.539062 C -1.839844 -7.539062 -2.105469 -7.714844 -2.277344 -7.976562 C -2.453125 -8.328125 -2.71875 -8.152344 -3.332031 -7.363281 C -3.769531 -6.835938 -4.207031 -6.136719 -4.207031 -5.785156 C -4.207031 -4.207031 0.964844 -0.527344 4.820312 0.703125 C 5.785156 0.964844 7.363281 1.050781 9.289062 0.964844 C 14.023438 0.703125 17.265625 -1.140625 19.019531 -4.734375 C 19.808594 -6.398438 19.898438 -6.835938 19.808594 -9.027344 C 19.632812 -11.746094 19.019531 -12.972656 15.6875 -18.320312 C 14.460938 -20.160156 13.148438 -22.527344 12.796875 -23.578125 C 11.308594 -27.433594 12.535156 -32.78125 15.6875 -36.289062 C 16.828125 -37.515625 18.40625 -38.652344 19.019531 -38.652344 C 19.195312 -38.652344 19.195312 -36.726562 19.019531 -34.445312 L 18.84375 -30.238281 L 19.898438 -29.800781 C 20.511719 -29.539062 20.859375 -29.273438 20.683594 -29.273438 C 20.511719 -29.273438 20.511719 -29.101562 20.773438 -28.925781 C 21.738281 -27.960938 23.492188 -30.238281 24.367188 -33.570312 C 24.804688 -35.324219 24.894531 -35.9375 24.542969 -37.25 C 24.015625 -39.179688 22.964844 -40.667969 21.210938 -41.722656 Z M 16.039062 -7.625 C 16.304688 -8.238281 16.476562 -8.503906 16.476562 -8.238281 C 16.476562 -7.714844 15.515625 -5.871094 15.515625 -6.3125 C 15.515625 -6.398438 15.6875 -7.011719 16.039062 -7.625 Z M 14.902344 -8.589844 C 15.339844 -10.691406 15.425781 -10.867188 15.515625 -9.554688 C 15.515625 -8.851562 15.25 -8.0625 14.988281 -7.714844 C 14.636719 -7.101562 14.550781 -7.1875 14.902344 -8.589844 Z M 14.375 -9.992188 C 14.460938 -9.730469 14.460938 -9.378906 14.375 -9.117188 C 14.285156 -8.941406 14.199219 -9.117188 14.199219 -9.554688 C 14.199219 -9.992188 14.285156 -10.253906 14.375 -9.992188 Z M 7.363281 -32.695312 C 7.273438 -32.605469 7.1875 -32.78125 7.1875 -33.132812 C 7.1875 -33.570312 7.273438 -33.570312 7.363281 -33.308594 C 7.449219 -33.132812 7.449219 -32.78125 7.363281 -32.695312 Z M 8.152344 -31.292969 C 8.152344 -30.941406 8.0625 -30.589844 7.886719 -30.503906 C 7.363281 -30.152344 8.0625 -33.484375 8.765625 -34.886719 C 9.203125 -35.671875 9.554688 -36.289062 9.640625 -36.289062 C 9.730469 -36.289062 9.378906 -35.324219 8.941406 -34.097656 C 8.503906 -32.867188 8.152344 -31.640625 8.152344 -31.292969 Z M 10.957031 -35.671875 C 10.519531 -34.621094 9.90625 -33.308594 9.640625 -32.605469 L 9.203125 -31.464844 L 9.378906 -32.605469 C 9.554688 -33.921875 10.429688 -35.761719 11.308594 -36.8125 C 11.65625 -37.164062 11.480469 -36.636719 10.957031 -35.671875 Z M 21.386719 -33.042969 C 21.300781 -32.957031 21.210938 -33.132812 21.210938 -33.484375 C 21.210938 -33.832031 21.300781 -33.921875 21.386719 -33.65625 C 21.472656 -33.484375 21.472656 -33.132812 21.386719 -33.042969 Z M 21.386719 -33.042969 "/></g></g></g><g fill="rgb(25.489807%, 34.509277%, 76.078796%)" fill-opacity="1"><g transform="translate(235.002221, 314.413778)"><g><path d="M 25.15625 -17.707031 C 24.71875 -17.355469 24.628906 -17.355469 24.804688 -17.878906 C 24.980469 -18.496094 24.980469 -18.496094 24.453125 -17.878906 C 23.929688 -17.179688 22.964844 -15.777344 20.070312 -11.570312 C 16.917969 -6.925781 12.445312 -2.980469 10.429688 -2.980469 C 9.378906 -2.980469 8.414062 -6.3125 8.503906 -10.167969 C 8.503906 -17.53125 13.410156 -28.3125 19.109375 -33.65625 C 21.035156 -35.5 23.402344 -36.726562 23.929688 -36.289062 C 24.015625 -36.113281 24.105469 -34.886719 24.015625 -33.394531 C 23.929688 -30.941406 24.015625 -30.765625 24.980469 -29.890625 C 25.59375 -29.363281 26.296875 -29.011719 26.558594 -29.101562 C 28.046875 -29.363281 29.1875 -34.710938 28.222656 -36.636719 C 27.433594 -38.039062 22.613281 -41.632812 21.035156 -41.898438 C 19.109375 -42.335938 16.390625 -41.808594 14.550781 -40.84375 C 9.289062 -38.039062 3.507812 -29.539062 1.140625 -21.210938 C 0.4375 -18.84375 0.261719 -17.53125 0.261719 -14.726562 C 0.261719 -7.273438 2.453125 -3.332031 8.152344 -0.351562 C 9.992188 0.613281 11.21875 0.964844 12.269531 0.964844 C 17.003906 1.050781 22.613281 -5.785156 24.804688 -14.285156 C 25.769531 -18.320312 25.769531 -18.230469 25.15625 -17.707031 Z M 10.34375 -30.941406 C 10.519531 -31.027344 10.429688 -30.765625 10.078125 -30.238281 C 9.816406 -29.800781 9.464844 -29.363281 9.378906 -29.363281 C 9.117188 -29.363281 9.90625 -30.675781 10.34375 -30.941406 Z M 3.332031 -17.179688 C 3.332031 -17.878906 4.207031 -20.773438 4.207031 -20.160156 C 4.207031 -19.984375 4.03125 -19.109375 3.769531 -18.144531 C 3.507812 -17.265625 3.332031 -16.828125 3.332031 -17.179688 Z M 3.945312 -13.148438 L 4.121094 -15.515625 C 4.207031 -16.828125 4.46875 -18.667969 4.820312 -19.722656 C 5.347656 -21.648438 8.765625 -29.011719 9.117188 -29.011719 C 9.203125 -29.011719 8.765625 -27.960938 8.0625 -26.644531 C 7.449219 -25.332031 6.398438 -22.789062 5.785156 -20.949219 C 5.171875 -19.019531 4.46875 -16.566406 4.292969 -15.339844 Z M 6.925781 -20.511719 C 6.398438 -19.019531 5.960938 -17.53125 5.871094 -17.179688 C 5.699219 -16.566406 5.699219 -16.566406 5.609375 -17.09375 C 5.523438 -19.019531 8.851562 -26.734375 11.308594 -30.414062 C 12.972656 -32.867188 13.324219 -32.957031 11.832031 -30.589844 C 10.078125 -27.960938 7.976562 -23.492188 6.925781 -20.511719 Z M 6.925781 -20.511719 "/></g></g></g><g fill="rgb(25.489807%, 34.509277%, 76.078796%)" fill-opacity="1"><g transform="translate(265.232823, 314.413778)"><g><path d="M 24.71875 -42.421875 C 22.527344 -43.648438 22 -43.824219 20.335938 -43.824219 C 19.195312 -43.824219 18.320312 -43.914062 17.96875 -44.261719 C 15.25 -46.804688 9.117188 -41.457031 4.996094 -32.867188 C 0.261719 -23.050781 -1.226562 -12.269531 1.488281 -6.484375 C 2.71875 -3.769531 6.3125 -0.613281 8.152344 -0.613281 C 8.414062 -0.613281 9.289062 -0.261719 10.078125 0.175781 C 11.746094 1.140625 12.710938 1.226562 14.8125 0.527344 C 19.28125 -1.050781 24.105469 -8.328125 27.785156 -19.28125 C 30.503906 -27.433594 31.117188 -34.007812 29.449219 -37.953125 C 28.488281 -40.054688 27.871094 -40.582031 24.71875 -42.421875 Z M 25.769531 -23.839844 C 25.769531 -24.277344 25.855469 -24.367188 25.945312 -24.105469 C 26.03125 -23.839844 26.03125 -23.578125 25.945312 -23.402344 C 25.855469 -23.316406 25.769531 -23.492188 25.769531 -23.839844 Z M 4.996094 -24.191406 C 5.082031 -24.628906 5.171875 -24.71875 5.257812 -24.367188 C 5.347656 -24.191406 5.347656 -23.839844 5.257812 -23.753906 C 5.082031 -23.664062 4.996094 -23.839844 4.996094 -24.191406 Z M 3.769531 -17.355469 C 3.679688 -16.128906 3.507812 -15.074219 3.507812 -14.988281 C 3.242188 -14.726562 3.417969 -17.441406 3.679688 -18.496094 C 3.855469 -19.109375 3.855469 -18.667969 3.769531 -17.355469 Z M 4.121094 -20.160156 C 4.121094 -20.511719 4.207031 -21.210938 4.382812 -21.648438 C 4.558594 -22.351562 4.644531 -22.351562 4.644531 -21.824219 C 4.644531 -21.472656 4.46875 -20.773438 4.382812 -20.335938 C 4.121094 -19.632812 4.121094 -19.632812 4.121094 -20.160156 Z M 5.609375 -21.035156 C 5.171875 -19.28125 4.820312 -16.566406 4.734375 -14.023438 C 4.46875 -10.078125 4.46875 -9.90625 4.207031 -11.832031 C 3.679688 -16.214844 6.136719 -26.644531 9.027344 -32.34375 C 10.078125 -34.445312 10.078125 -33.921875 9.027344 -31.640625 C 8.0625 -29.449219 6.925781 -25.769531 5.609375 -21.035156 Z M 8.238281 -14.113281 C 8.152344 -13.9375 8.0625 -14.199219 8.0625 -14.550781 C 8.0625 -14.902344 8.152344 -14.988281 8.238281 -14.726562 C 8.328125 -14.460938 8.328125 -14.199219 8.238281 -14.113281 Z M 8.851562 -27.609375 C 8.238281 -25.59375 7.1875 -22.089844 6.660156 -19.722656 C 6.136719 -17.441406 5.699219 -15.863281 5.699219 -16.214844 C 5.609375 -18.667969 8.414062 -28.222656 10.519531 -32.605469 C 11.480469 -34.710938 12.445312 -36.375 12.535156 -36.375 C 12.621094 -36.375 12.097656 -35.234375 11.394531 -33.746094 C 10.691406 -32.34375 9.554688 -29.539062 8.851562 -27.609375 Z M 23.753906 -15.25 C 23.402344 -14.902344 23.402344 -14.988281 23.578125 -15.425781 C 23.664062 -15.777344 23.929688 -15.953125 24.015625 -15.863281 C 24.105469 -15.777344 24.015625 -15.425781 23.753906 -15.25 Z M 24.894531 -17.96875 C 24.71875 -17.53125 24.542969 -16.917969 24.367188 -16.652344 C 24.105469 -16.304688 24.105469 -16.390625 24.277344 -17.003906 C 24.367188 -17.441406 24.628906 -18.054688 24.804688 -18.320312 C 24.980469 -18.667969 24.980469 -18.582031 24.894531 -17.96875 Z M 24.980469 -33.484375 C 24.542969 -25.332031 18.84375 -10.605469 14.460938 -6.574219 C 13.9375 -6.136719 12.972656 -5.347656 12.269531 -4.820312 C 11.480469 -4.382812 10.78125 -3.945312 10.691406 -3.945312 C 9.992188 -3.945312 9.378906 -7.539062 9.378906 -10.867188 C 9.378906 -14.8125 10.167969 -19.457031 11.921875 -25.417969 C 13.585938 -31.378906 14.8125 -33.832031 17.355469 -36.199219 C 19.457031 -38.039062 23.402344 -40.320312 24.015625 -39.882812 C 24.71875 -39.441406 25.15625 -36.636719 24.980469 -33.484375 Z M 25.945312 -20.859375 C 25.332031 -19.546875 25.332031 -20.160156 25.855469 -21.648438 C 26.121094 -22.351562 26.382812 -22.613281 26.382812 -22.351562 C 26.382812 -22.089844 26.121094 -21.386719 25.945312 -20.859375 Z M 26.382812 -26.382812 C 26.644531 -26.996094 26.644531 -27.082031 26.644531 -26.558594 C 26.644531 -26.121094 26.558594 -25.507812 26.382812 -25.15625 C 26.03125 -24.367188 26.03125 -25.242188 26.382812 -26.382812 Z M 26.558594 -23.140625 C 26.46875 -22.964844 26.382812 -23.226562 26.382812 -23.578125 C 26.46875 -23.929688 26.46875 -24.015625 26.644531 -23.753906 C 26.734375 -23.492188 26.734375 -23.226562 26.558594 -23.140625 Z M 27.257812 -25.417969 C 27.171875 -25.332031 27.082031 -25.507812 27.082031 -25.855469 C 27.082031 -26.296875 27.171875 -26.382812 27.257812 -26.121094 C 27.347656 -25.855469 27.347656 -25.507812 27.257812 -25.417969 Z M 27.347656 -29.800781 C 27.347656 -29.273438 27.171875 -28.488281 27.082031 -28.046875 C 26.820312 -27.433594 26.820312 -27.699219 26.996094 -28.835938 C 27.171875 -30.765625 27.433594 -31.292969 27.347656 -29.800781 Z M 27.609375 -26.734375 C 27.523438 -26.644531 27.433594 -26.820312 27.433594 -27.257812 C 27.433594 -27.609375 27.523438 -27.699219 27.609375 -27.433594 C 27.699219 -27.171875 27.699219 -26.910156 27.609375 -26.734375 Z M 27.609375 -31.464844 C 27.523438 -31.117188 27.433594 -31.464844 27.433594 -32.167969 C 27.523438 -32.957031 27.523438 -33.21875 27.609375 -32.78125 C 27.699219 -32.34375 27.699219 -31.730469 27.609375 -31.464844 Z M 27.960938 -28.488281 C 27.785156 -28.3125 27.699219 -28.574219 27.785156 -28.925781 C 27.785156 -29.273438 27.871094 -29.363281 27.960938 -29.101562 C 28.046875 -28.835938 28.046875 -28.574219 27.960938 -28.488281 Z M 27.960938 -28.488281 "/></g></g></g><g fill="rgb(25.489807%, 34.509277%, 76.078796%)" fill-opacity="1"><g transform="translate(297.21592, 314.413778)"><g><path d="M 20.949219 -69.59375 C 20.511719 -69.945312 19.722656 -70.644531 19.195312 -71.171875 C 18.40625 -71.960938 18.144531 -72.046875 17.441406 -71.785156 C 17.003906 -71.609375 16.390625 -71.171875 16.128906 -70.820312 C 14.988281 -69.59375 13.058594 -66.089844 11.746094 -63.019531 C 8.851562 -56.359375 3.769531 -39.882812 2.015625 -31.816406 C 0.4375 -24.542969 0.261719 -23.316406 0.261719 -16.128906 C 0.261719 -9.730469 0.351562 -8.851562 1.050781 -6.75 C 2.367188 -2.367188 4.121094 -0.613281 7.976562 0.703125 C 10.429688 1.488281 11.746094 0.613281 9.992188 -0.703125 C 9.554688 -1.140625 8.765625 -2.367188 8.414062 -3.417969 C 7.714844 -5.257812 7.625 -5.960938 7.625 -11.570312 C 7.714844 -17.003906 7.800781 -18.320312 8.589844 -22.089844 C 10.078125 -29.101562 12.535156 -37.691406 17.179688 -51.890625 C 19.546875 -59.25 21.5625 -66 21.738281 -67.050781 C 21.824219 -68.71875 21.824219 -68.980469 20.949219 -69.59375 Z M 15.601562 -64.6875 C 15.863281 -65.210938 16.128906 -65.386719 16.128906 -65.210938 C 16.128906 -65.035156 15.863281 -64.511719 15.601562 -64.074219 C 15.339844 -63.632812 15.164062 -63.371094 15.164062 -63.546875 C 15.164062 -63.722656 15.339844 -64.246094 15.601562 -64.6875 Z M 14.8125 -62.757812 C 14.988281 -63.019531 15.164062 -63.109375 15.164062 -62.84375 C 15.164062 -62.671875 14.988281 -62.320312 14.8125 -62.054688 C 14.636719 -61.792969 14.460938 -61.707031 14.460938 -61.882812 C 14.460938 -62.054688 14.636719 -62.40625 14.8125 -62.757812 Z M 14.113281 -61.09375 C 14.285156 -61.355469 14.460938 -61.441406 14.460938 -61.179688 C 14.460938 -61.003906 14.285156 -60.652344 14.113281 -60.390625 C 13.9375 -60.128906 13.847656 -60.039062 13.847656 -60.214844 C 13.847656 -60.390625 13.9375 -60.742188 14.113281 -61.09375 Z M 13.5 -59.339844 C 13.671875 -59.691406 13.761719 -59.691406 13.761719 -59.515625 C 13.761719 -59.339844 13.671875 -58.988281 13.5 -58.726562 C 13.324219 -58.460938 13.148438 -58.375 13.148438 -58.550781 C 13.148438 -58.726562 13.324219 -59.078125 13.5 -59.339844 Z M 12.359375 -56.359375 C 12.445312 -56.796875 12.710938 -57.410156 12.882812 -57.675781 C 13.058594 -58.023438 13.058594 -57.9375 12.972656 -57.410156 C 12.796875 -56.886719 12.621094 -56.273438 12.445312 -56.007812 C 12.183594 -55.65625 12.183594 -55.832031 12.359375 -56.359375 Z M 11.480469 -53.90625 C 11.832031 -54.78125 12.097656 -55.308594 12.097656 -55.042969 C 12.097656 -54.78125 11.832031 -53.816406 11.480469 -52.851562 C 11.132812 -51.976562 10.867188 -51.449219 10.867188 -51.714844 C 10.867188 -51.976562 11.132812 -52.941406 11.480469 -53.90625 Z M 10.429688 -50.660156 C 10.605469 -51.011719 10.78125 -51.011719 10.78125 -50.835938 C 10.691406 -50.222656 10.167969 -49.171875 10.167969 -49.699219 C 10.167969 -49.960938 10.253906 -50.398438 10.429688 -50.660156 Z M 2.71875 -12.710938 C 2.628906 -12.183594 2.542969 -12.621094 2.542969 -13.585938 C 2.542969 -14.636719 2.628906 -15.074219 2.71875 -14.550781 C 2.804688 -14.023438 2.804688 -13.234375 2.71875 -12.710938 Z M 2.980469 -19.722656 C 2.890625 -19.371094 2.890625 -19.632812 2.890625 -20.246094 C 2.890625 -20.949219 2.890625 -21.210938 2.980469 -20.859375 C 3.066406 -20.597656 3.066406 -20.070312 2.980469 -19.722656 Z M 3.332031 -23.050781 C 3.417969 -22.789062 3.417969 -22.4375 3.332031 -22.175781 C 3.242188 -22 3.15625 -22.175781 3.15625 -22.613281 C 3.15625 -23.050781 3.242188 -23.316406 3.332031 -23.050781 Z M 4.910156 -18.496094 C 4.734375 -16.828125 4.644531 -15.425781 4.558594 -15.339844 C 4.382812 -15.074219 4.46875 -18.84375 4.734375 -20.160156 C 4.996094 -21.035156 4.996094 -20.511719 4.910156 -18.496094 Z M 12.796875 -49.699219 C 11.65625 -46.28125 9.992188 -40.582031 8.941406 -36.988281 C 7.886719 -33.394531 6.574219 -28.488281 6.046875 -25.945312 C 5.523438 -23.492188 5.171875 -22.261719 5.257812 -23.316406 C 5.523438 -25.417969 7.363281 -33.308594 8.675781 -37.601562 C 10.429688 -43.5625 14.550781 -56.097656 14.636719 -56.007812 C 14.726562 -55.921875 13.847656 -53.027344 12.796875 -49.699219 Z M 16.304688 -59.867188 C 15.425781 -57.585938 14.8125 -56.359375 15.339844 -58.023438 C 15.863281 -59.777344 16.917969 -62.40625 17.003906 -62.320312 C 17.09375 -62.230469 16.742188 -61.179688 16.304688 -59.867188 Z M 18.144531 -64.6875 C 17.96875 -64.421875 17.792969 -64.335938 17.792969 -64.597656 C 17.792969 -64.773438 17.96875 -65.125 18.144531 -65.386719 C 18.320312 -65.648438 18.496094 -65.738281 18.496094 -65.5625 C 18.496094 -65.386719 18.320312 -65.035156 18.144531 -64.6875 Z M 17.707031 -66.175781 C 15.601562 -61.355469 13.058594 -54.605469 11.042969 -48.03125 C 5.171875 -29.539062 3.679688 -22.351562 3.769531 -13.234375 C 3.769531 -10.519531 3.679688 -8.238281 3.59375 -8.238281 C 3.507812 -8.238281 3.417969 -8.941406 3.417969 -9.816406 C 3.417969 -10.691406 3.332031 -11.746094 3.242188 -12.097656 C 2.980469 -13.5 3.855469 -22.261719 4.644531 -26.46875 C 5.523438 -30.675781 7.1875 -37.25 8.941406 -42.859375 C 10.957031 -49.433594 13.148438 -56.183594 14.375 -59.425781 C 15.863281 -63.285156 18.84375 -69.855469 19.019531 -69.59375 C 19.109375 -69.59375 18.496094 -68.015625 17.707031 -66.175781 Z M 17.707031 -66.175781 "/></g></g></g><g fill="rgb(25.489807%, 34.509277%, 76.078796%)" fill-opacity="1"><g transform="translate(312.550556, 314.413778)"><g><path d="M 33.042969 -41.109375 C 32.695312 -41.109375 32.167969 -41.546875 31.730469 -42.070312 C 30.503906 -43.738281 28.488281 -43.125 26.910156 -40.582031 C 26.382812 -39.792969 25.769531 -39.09375 25.59375 -39.09375 C 25.15625 -39.09375 24.015625 -39.882812 22.875 -41.019531 C 20.335938 -43.5625 16.039062 -43.125 11.746094 -39.882812 C 8.675781 -37.601562 3.769531 -30.238281 2.015625 -25.15625 C -0.0859375 -19.019531 -0.613281 -12.445312 0.703125 -8.941406 C 1.488281 -6.925781 3.417969 -4.734375 4.734375 -4.46875 C 5.171875 -4.292969 5.960938 -3.945312 6.398438 -3.59375 C 7.449219 -2.804688 9.464844 -2.804688 11.042969 -3.679688 C 12.710938 -4.46875 15.6875 -7.976562 18.144531 -12.007812 L 19.984375 -14.988281 L 20.160156 -10.78125 C 20.335938 -8.414062 20.597656 -5.960938 20.773438 -5.171875 C 21.386719 -3.507812 23.839844 -0.875 25.417969 -0.175781 C 26.121094 0.0859375 26.820312 0.4375 26.910156 0.703125 C 27.171875 1.050781 28.046875 1.140625 28.222656 0.789062 C 28.3125 0.613281 28.136719 -0.789062 27.871094 -2.367188 C 27.523438 -4.03125 27.347656 -6.925781 27.347656 -9.640625 C 27.347656 -16.128906 28.3125 -20.160156 33.570312 -34.886719 C 34.269531 -36.726562 34.796875 -38.566406 34.796875 -38.917969 C 34.796875 -39.792969 33.746094 -41.109375 33.042969 -41.109375 Z M 2.980469 -13.761719 C 2.890625 -13.410156 2.804688 -13.671875 2.804688 -14.375 C 2.804688 -14.988281 2.890625 -15.25 2.980469 -14.902344 C 3.066406 -14.636719 3.066406 -14.113281 2.980469 -13.761719 Z M 3.15625 -16.566406 C 3.15625 -16.917969 3.242188 -17.53125 3.417969 -17.878906 C 3.59375 -18.320312 3.679688 -18.320312 3.679688 -18.054688 C 3.679688 -17.792969 3.507812 -17.179688 3.417969 -16.652344 C 3.15625 -16.039062 3.15625 -15.953125 3.15625 -16.566406 Z M 3.945312 -13.234375 C 3.59375 -11.308594 3.417969 -10.691406 3.417969 -11.480469 C 3.332031 -14.902344 5.257812 -22.175781 7.363281 -26.382812 C 8.941406 -29.363281 8.941406 -28.835938 7.449219 -25.59375 C 6.75 -24.105469 5.699219 -21.386719 5.257812 -19.546875 C 4.734375 -17.792969 4.207031 -14.902344 3.945312 -13.234375 Z M 5.609375 -15.515625 C 4.644531 -11.746094 4.46875 -12.007812 5.257812 -15.953125 C 5.960938 -19.195312 7.1875 -22.875 8.675781 -25.855469 C 9.90625 -28.3125 12.535156 -32.605469 13.148438 -32.957031 C 13.324219 -33.042969 12.621094 -31.90625 11.65625 -30.328125 C 9.378906 -26.820312 8.765625 -25.59375 7.449219 -21.914062 C 6.835938 -20.246094 5.960938 -17.355469 5.609375 -15.515625 Z M 22.261719 -28.046875 C 21.472656 -25.15625 14.988281 -14.636719 11.308594 -10.253906 C 10.253906 -9.117188 9.117188 -7.886719 8.589844 -7.539062 L 7.714844 -7.011719 L 7.714844 -8.328125 C 7.714844 -11.480469 10.78125 -20.773438 13.324219 -25.242188 C 16.304688 -30.675781 21.125 -35.761719 23.402344 -35.761719 C 24.453125 -35.761719 24.453125 -34.972656 23.578125 -32.34375 C 23.140625 -31.027344 22.613281 -29.011719 22.261719 -28.046875 Z M 23.316406 -19.808594 C 23.402344 -19.546875 23.402344 -19.195312 23.316406 -18.933594 C 23.226562 -18.757812 23.140625 -18.933594 23.140625 -19.371094 C 23.140625 -19.808594 23.226562 -19.984375 23.316406 -19.808594 Z M 23.316406 -10.429688 C 23.316406 -9.90625 23.226562 -10.34375 23.226562 -11.394531 C 23.226562 -12.359375 23.316406 -12.796875 23.316406 -12.269531 C 23.402344 -11.746094 23.402344 -10.957031 23.316406 -10.429688 Z M 24.628906 -20.511719 C 24.367188 -19.019531 23.929688 -16.828125 23.753906 -15.515625 L 23.492188 -13.148438 L 23.664062 -16.039062 C 23.839844 -18.84375 24.71875 -23.578125 24.980469 -23.226562 C 25.066406 -23.140625 24.894531 -21.914062 24.628906 -20.511719 Z M 25.332031 -18.757812 C 25.242188 -18.667969 25.15625 -18.84375 25.15625 -19.195312 C 25.15625 -19.632812 25.242188 -19.722656 25.332031 -19.457031 C 25.417969 -19.195312 25.417969 -18.933594 25.332031 -18.757812 Z M 25.945312 -21.824219 C 25.855469 -21.648438 25.769531 -21.914062 25.769531 -22.261719 C 25.855469 -22.613281 25.945312 -22.703125 26.03125 -22.4375 C 26.121094 -22.175781 26.121094 -21.914062 25.945312 -21.824219 Z M 26.296875 -23.316406 C 26.207031 -23.050781 26.207031 -23.226562 26.207031 -23.753906 C 26.207031 -24.191406 26.207031 -24.367188 26.296875 -24.105469 C 26.46875 -23.929688 26.46875 -23.492188 26.296875 -23.316406 Z M 26.46875 -25.066406 C 26.46875 -25.332031 26.644531 -25.769531 26.820312 -26.03125 C 26.996094 -26.296875 27.082031 -26.382812 27.082031 -26.207031 C 27.082031 -25.59375 26.46875 -24.542969 26.46875 -25.066406 Z M 30.589844 -38.917969 C 30.328125 -38.390625 30.152344 -38.214844 30.152344 -38.742188 C 30.152344 -38.917969 30.238281 -39.09375 30.414062 -39.265625 C 30.675781 -39.355469 30.675781 -39.265625 30.589844 -38.917969 Z M 31.992188 -39.09375 C 31.378906 -37.953125 31.027344 -37.691406 31.378906 -38.652344 C 31.640625 -39.441406 32.429688 -40.667969 32.429688 -40.320312 C 32.429688 -40.144531 32.253906 -39.617188 31.992188 -39.09375 Z M 31.992188 -39.09375 "/></g></g></g></svg>